# xmcd CD database file
#
# Track frame offsets:
#	150
#	10822
#	29375
#	50014
#	71332
#	91457
#
# Disc length: 1591 seconds
#
# Revision: 0
# Processed by: cddbd v1.5.1PL0 Copyright (c) Steve Scherf et al.
# Submitted via: CDex 1.51
#
DISCID=46063506
DTITLE=MICADELIC - MB5
DYEAR=2000
DGENRE=Hip-Hop
TTITLE0=INTRO
TTITLE1=天狗
TTITLE2=有視徹戦
TTITLE3=この男和尚につき
TTITLE4=イタオデリカル
TTITLE5=この男凶暴につき（BRING THE NOISE version）
EXTD=YEAR: 2000
EXTT0=
EXTT1=
EXTT2=
EXTT3=
EXTT4=
EXTT5=
PLAYORDER=
